<svg version="1.1" id="Layer_1" xmlns="http://www.w3.org/2000/svg" xmlns:xlink="http://www.w3.org/1999/xlink" x="0px" y="0px"
	 width="100%" viewBox="0 0 624 288" enable-background="new 0 0 624 288" xml:space="preserve">
<path fill="#000000" opacity="1.000000" stroke="none" 
	d="
M166.796143,112.123840 
	C172.732697,115.564316 178.307968,118.902557 183.995697,122.036659 
	C186.605225,123.474579 187.913284,125.356094 187.907547,128.383163 
	C187.867096,149.708710 187.881638,171.034409 187.923889,192.359970 
	C187.929123,194.998306 186.779343,196.620758 184.507721,197.921967 
	C166.009521,208.517822 147.538437,219.161652 129.121857,229.898529 
	C126.621819,231.356033 124.571030,231.235626 122.167946,229.845474 
	C103.714928,219.170609 85.235817,208.540604 66.728394,197.960358 
	C64.402847,196.630890 63.618740,194.843246 63.626289,192.246063 
	C63.688244,170.920395 63.696014,149.594360 63.617805,128.268784 
	C63.607567,125.477287 64.430740,123.609909 66.933853,122.178841 
	C85.585976,111.515152 104.206589,100.795593 122.773323,89.984085 
	C125.470787,88.413338 127.456558,89.460838 129.675232,90.743446 
	C141.931854,97.828964 154.210022,104.877190 166.796143,112.123840 
M159.544754,130.021606 
	C149.470306,124.175163 139.392288,118.334824 129.324341,112.477203 
	C127.273277,111.283882 125.467209,110.329247 122.911942,111.843063 
	C110.458008,119.221153 97.895638,126.416740 85.346313,133.632843 
	C83.263992,134.830200 82.301582,136.396988 82.315170,138.871658 
	C82.393753,153.186111 82.384674,167.501282 82.335884,181.815964 
	C82.328278,184.047318 83.074707,185.593964 85.045280,186.709137 
	C97.788727,193.920944 110.526108,201.144196 123.208199,208.462967 
	C125.267471,209.651367 126.821373,209.269562 128.713440,208.160904 
	C140.772705,201.094681 152.850891,194.058487 165.014023,187.173508 
	C167.872742,185.555328 168.798447,183.492233 168.758057,180.310760 
	C168.610199,168.660980 168.169113,156.975510 168.886536,145.368256 
	C169.350372,137.863464 167.420990,132.869476 159.544754,130.021606 
z"/>
<path fill="#000000" opacity="1.000000" stroke="none" 
	d="
M298.984314,159.083313 
	C300.046295,147.975525 304.825073,140.094788 315.424194,136.414062 
	C321.495575,134.305679 327.167053,135.737762 333.059021,138.322739 
	C334.303589,133.603638 333.692505,129.135941 333.669464,124.746529 
	C333.651215,121.274040 334.565857,119.660881 338.430725,119.590569 
	C349.072632,119.396996 349.059631,119.239479 349.045685,129.958008 
	C349.025299,145.621918 348.917419,161.286880 349.074310,176.949127 
	C349.120575,181.566879 347.690247,183.996948 342.774048,183.285141 
	C339.629974,182.829910 336.079529,184.609161 333.355042,181.526520 
	C333.099640,181.237549 331.847076,181.718414 331.108704,181.984161 
	C315.435028,187.625488 302.255981,179.908249 299.523163,163.462952 
	C299.305115,162.151001 299.156250,160.827560 298.984314,159.083313 
M331.643646,151.830185 
	C330.536407,151.105209 329.514618,150.158783 328.307373,149.692963 
	C322.611908,147.495453 315.959137,150.489532 314.435211,155.823761 
	C312.459595,162.739044 315.669067,169.015228 321.914642,170.449860 
	C327.877747,171.819641 333.429779,167.853363 334.447479,161.361511 
	C334.959534,158.095306 333.859985,155.141190 331.643646,151.830185 
z"/>
<path fill="#000000" opacity="1.000000" stroke="none" 
	d="
M541.100098,174.076233 
	C540.693115,174.633057 540.449219,174.878754 540.307617,175.173569 
	C536.020020,184.104156 528.532532,184.588089 519.432800,182.650269 
	C523.752014,174.699188 530.691589,168.817657 535.131348,160.718506 
	C529.384399,159.676620 524.684326,157.413116 521.054321,153.280487 
	C514.726257,146.076218 513.914429,136.361847 518.989807,128.852386 
	C524.331909,120.948273 535.042480,117.298615 544.095215,120.297737 
	C557.631226,124.782127 563.005127,137.582275 556.906128,151.293411 
	C553.144775,159.749100 546.478088,166.265335 541.100098,174.076233 
M532.589783,134.078461 
	C529.554382,137.107071 529.210144,140.538940 531.635681,143.950027 
	C533.865906,147.086395 537.279602,147.517227 540.582275,146.156677 
	C544.086975,144.712875 545.308960,141.617004 544.666748,137.941513 
	C543.820251,133.096878 538.937927,131.298447 532.589783,134.078461 
z"/>
<path fill="#000000" opacity="1.000000" stroke="none" 
	d="
M289.524506,175.106445 
	C291.072235,177.447662 289.424011,178.371353 288.136566,179.389221 
	C280.544495,185.391724 266.301727,185.707642 257.420563,180.087814 
	C248.367340,174.359131 244.322433,164.364944 246.745651,153.712189 
	C249.132660,143.218506 260.236725,134.783127 271.127777,135.189865 
	C283.092926,135.636719 291.842529,143.589325 293.409729,155.426895 
	C293.562500,156.580872 293.879425,157.717484 293.973755,158.874100 
	C294.370880,163.744141 293.129639,165.105255 288.158905,165.143967 
	C281.496277,165.195847 274.832336,165.120880 268.170593,165.215790 
	C266.429565,165.240555 264.514252,164.661987 262.730347,166.196167 
	C263.504547,168.948486 265.694794,169.973801 268.124908,170.600204 
	C271.079895,171.361877 274.334991,171.685638 277.011871,170.557953 
	C282.694153,168.164215 286.054993,171.049759 289.524506,175.106445 
M273.594940,148.680222 
	C268.759979,147.673828 264.958099,148.943893 262.163330,153.846420 
	C268.030426,154.466965 273.330017,154.260666 278.819336,153.691696 
	C278.198212,150.740952 276.206543,149.893829 273.594940,148.680222 
z"/>
<path fill="#000000" opacity="1.000000" stroke="none" 
	d="
M387.251038,183.713440 
	C371.940460,185.701126 359.623901,178.545074 356.426239,165.761978 
	C354.005219,156.083664 356.392883,147.639801 364.256622,141.109512 
	C371.973267,134.701416 382.714264,133.411530 391.357574,138.080948 
	C400.230896,142.874664 403.424072,150.819870 403.380890,160.531326 
	C403.365448,164.000748 401.920074,165.247864 398.569824,165.193878 
	C391.583710,165.081329 384.593719,165.134598 377.606445,165.216629 
	C375.850250,165.237259 373.974731,164.702515 372.016785,166.029068 
	C373.036957,169.099976 375.436584,170.195114 378.299927,170.742813 
	C381.125122,171.283188 384.215057,171.597809 386.699829,170.545578 
	C393.656006,167.599808 396.485046,172.419006 400.073059,176.736572 
	C396.914764,181.074203 392.377380,182.487976 387.251038,183.713440 
M388.295380,152.577225 
	C382.641113,146.568298 376.353607,146.870453 372.133667,154.107895 
	C377.854980,153.520187 383.137177,155.098389 388.295380,152.577225 
z"/>
<path fill="#000000" opacity="1.000000" stroke="none" 
	d="
M472.737244,183.297592 
	C468.938934,182.219879 471.081390,180.586868 472.029053,179.335526 
	C476.621155,173.271713 481.303925,167.276535 486.158813,160.992691 
	C481.950012,159.171249 477.799744,158.459595 474.520599,155.778809 
	C466.566040,149.275742 464.178467,138.744598 468.829865,130.249802 
	C473.517242,121.689301 485.139404,117.189217 494.706909,120.230240 
	C506.662292,124.030251 512.649963,135.337433 509.064117,147.425873 
	C507.527405,152.606415 504.607941,157.050247 501.400543,161.318192 
	C497.406433,166.632904 493.058136,171.717636 489.479156,177.297058 
	C486.427734,182.054077 482.712433,184.257156 477.132599,183.396133 
	C475.831482,183.195358 474.476868,183.341385 472.737244,183.297592 
M490.684875,146.440735 
	C494.548126,144.772354 496.409821,141.818970 495.379211,137.728745 
	C494.535248,134.379272 491.991577,132.520477 488.444031,132.369125 
	C484.158752,132.186325 480.489807,135.523010 480.468842,139.545959 
	C480.446289,143.872116 484.135345,146.625870 490.684875,146.440735 
z"/>
<path fill="#000000" opacity="1.000000" stroke="none" 
	d="
M452.114990,146.076294 
	C449.337830,150.799774 443.637787,154.529739 444.181000,159.271057 
	C444.677948,163.608276 449.508392,167.409637 452.298462,171.535522 
	C454.676422,175.052032 457.962555,178.002319 459.614105,182.901627 
	C454.163757,183.497665 448.766785,184.539337 444.224640,182.601761 
	C439.583252,180.621857 438.395477,174.390945 433.547150,170.341064 
	C429.094482,181.739838 421.208832,186.175568 409.553223,182.463028 
	C409.038361,180.407883 410.653015,179.202057 411.690582,177.785309 
	C415.427887,172.682205 419.104950,167.529465 423.012817,162.559082 
	C424.998444,160.033554 424.917480,157.934921 423.116150,155.395157 
	C418.919861,149.478638 414.895569,143.440140 410.482819,136.984756 
	C421.789551,133.690598 429.754639,135.978928 434.117889,149.196594 
	C438.847473,136.733154 446.524628,133.314636 457.419739,136.637878 
	C457.340363,140.524231 453.826385,142.631958 452.114990,146.076294 
z"/>
<path fill="#000000" opacity="1.000000" stroke="none" 
	d="
M224.632568,171.955261 
	C224.638092,161.306427 224.769287,151.147430 224.584702,140.994171 
	C224.513504,137.078720 225.951324,135.767258 229.818604,135.743774 
	C239.351639,135.685898 239.350021,135.536133 239.346252,145.114578 
	C239.341003,158.434860 239.141220,171.758728 239.385757,185.074432 
	C239.646912,199.295380 229.921661,203.499268 217.512909,200.553360 
	C214.852264,199.921707 213.548187,198.441299 213.644745,195.629059 
	C213.752075,192.502533 213.669327,189.369492 213.669327,186.509171 
	C214.443420,186.077866 214.729767,185.774460 214.997971,185.789719 
	C224.352142,186.321579 224.634033,186.052795 224.633316,176.443512 
	C224.633209,175.111465 224.632568,173.779434 224.632568,171.955261 
z"/>
<path fill="#000000" opacity="1.000000" stroke="none" 
	d="
M224.949677,130.727921 
	C224.732605,129.452545 224.645218,128.626678 224.636749,127.799988 
	C224.552948,119.633621 224.556656,119.633583 232.638931,119.662910 
	C238.654160,119.684738 241.725159,124.971153 239.048889,130.627762 
	C238.651672,131.467331 238.073364,132.106155 237.236847,132.091583 
	C233.182037,132.020859 229.010956,133.349274 224.949677,130.727921 
z"/>
<path fill="#000000" opacity="1.000000" stroke="none" 
	d="
M92.811935,143.589050 
	C92.998535,140.983536 94.683296,140.129761 96.268837,139.215286 
	C104.912079,134.230164 113.600716,129.322067 122.186562,124.240189 
	C124.657211,122.777840 126.696220,122.910835 129.108444,124.330261 
	C137.563889,129.305725 146.069809,134.199219 154.642990,138.968475 
	C157.262466,140.425659 158.442032,142.198822 158.391418,145.289261 
	C158.230743,155.101273 158.258224,164.918716 158.389816,174.731705 
	C158.429794,177.712646 157.538712,179.716721 154.856216,181.222824 
	C146.157425,186.106796 137.515625,191.096420 128.943100,196.198593 
	C126.440628,197.687988 124.445885,197.427689 122.042496,195.996536 
	C113.612572,190.976746 105.116875,186.062897 96.554726,181.272247 
	C93.746208,179.700821 92.631859,177.701874 92.688171,174.465408 
	C92.864708,164.321030 92.770523,154.171906 92.811935,143.589050 
M129.864334,146.800140 
	C127.982666,145.954483 126.510109,144.253311 123.930420,145.301987 
	C113.540413,149.525711 112.050247,151.619568 112.114601,162.974487 
	C112.120262,163.973022 112.145882,164.971466 112.161949,165.969940 
	C112.184898,167.397552 112.819176,168.419769 113.949059,169.338165 
	C122.420532,176.223969 125.119995,176.458206 134.591278,170.941162 
	C135.597351,170.355118 136.582291,169.732178 137.568253,169.112396 
	C138.586929,168.472061 139.261337,167.642166 139.566711,166.398697 
	C141.663452,157.860474 139.331223,152.260880 131.779083,147.903168 
	C131.346771,147.653732 130.910950,147.410370 129.864334,146.800140 
z"/>
</svg>